HIERARCHY
ROOT reference
{
  OFFSET 0 0 0
  CHANNELS 6 Xposition Yposition Zposition Zrotation Xrotation Yrotation
  JOINT Hips
  {
    OFFSET 387.421 88.6843 214.036
    CHANNELS 3 Zrotation Xrotation Yrotation
    JOINT RightUpLeg
    {
      OFFSET -9.26407 -1.54033 -0.0169218
      CHANNELS 3 Zrotation Xrotation Yrotation
      JOINT RightLeg
      {
        OFFSET 0.0262756 -41.889 0.0389421
        CHANNELS 3 Zrotation Xrotation Yrotation
        JOINT RightFoot
        {
          OFFSET -0.025595 -42.7244 0.117519
          CHANNELS 3 Zrotation Xrotation Yrotation
          End Site
          {
            OFFSET 0 -7.69 17.5
          }
        }
      }
    }
    JOINT LeftUpLeg
    {
      OFFSET 9.28488 -1.63184 0.00456132
      CHANNELS 3 Zrotation Xrotation Yrotation
      JOINT LeftLeg
      {
        OFFSET -0.00133996 -41.8929 0.0117795
        CHANNELS 3 Zrotation Xrotation Yrotation
        JOINT LeftFoot
        {
          OFFSET 0.253805 -40.8902 0.809143
          CHANNELS 3 Zrotation Xrotation Yrotation
          End Site
          {
            OFFSET 0 -7.69 17.5
          }
        }
      }
    }
    JOINT Spine
    {
      OFFSET 0.04218 14.2944 0.0529257
      CHANNELS 3 Zrotation Xrotation Yrotation
      JOINT Spine1
      {
        OFFSET 0.022284 9.72228 0.00997239
        CHANNELS 3 Zrotation Xrotation Yrotation
        JOINT Spine2
        {
          OFFSET 0.0397412 10.1199 -0.0103674
          CHANNELS 3 Zrotation Xrotation Yrotation
          JOINT Spine3
          {
            OFFSET 0.0389473 9.71765 -0.00772733
            CHANNELS 3 Zrotation Xrotation Yrotation
            JOINT Neck
            {
              OFFSET 0.0437972 10.3765 0.0320322
              CHANNELS 3 Zrotation Xrotation Yrotation
              JOINT Head
              {
                OFFSET 0.0431994 9.46781 0.0291763
                CHANNELS 3 Zrotation Xrotation Yrotation
                End Site
                {
                  OFFSET 0 15.95 0
                }
              }
            }
            JOINT RightShoulder
            {
              OFFSET -3.17206 6.93005 0.0018626
              CHANNELS 3 Zrotation Xrotation Yrotation
              JOINT RightArm
              {
                OFFSET -12.781 0.0116363 0.0199633
                CHANNELS 3 Zrotation Xrotation Yrotation
                JOINT RightForeArm
                {
                  OFFSET -26.5135 -0.0113607 0.0486864
                  CHANNELS 3 Zrotation Xrotation Yrotation
                  JOINT RightHand
                  {
                    OFFSET -25.9857 -0.0984063 0.163753
                    CHANNELS 3 Zrotation Xrotation Yrotation
                    JOINT RightHandThumb1
                    {
                      OFFSET -2.48905 0.190105 3.12053
                      CHANNELS 3 Zrotation Xrotation Yrotation
                      JOINT RightHandThumb2
                      {
                        OFFSET -3.68274 0 0
                        CHANNELS 3 Zrotation Xrotation Yrotation
                        JOINT RightHandThumb3
                        {
                          OFFSET -2.55832 0 0
                          CHANNELS 3 Zrotation Xrotation Yrotation
                          End Site
                          {
                            OFFSET -2.194 0 0
                          }
                        }
                      }
                    }
                    JOINT RightInHandIndex
                    {
                      OFFSET -3.22368 0.508421 1.97842
                      CHANNELS 3 Zrotation Xrotation Yrotation
                      JOINT RightHandIndex1
                      {
                        OFFSET -5.21684 -0.091368 0.999158
                        CHANNELS 3 Zrotation Xrotation Yrotation
                        JOINT RightHandIndex2
                        {
                          OFFSET -3.61937 0 0
                          CHANNELS 3 Zrotation Xrotation Yrotation
                          JOINT RightHandIndex3
                          {
                            OFFSET -2.0521 0 0
                            CHANNELS 3 Zrotation Xrotation Yrotation
                            End Site
                            {
                              OFFSET -1.805 0 0
                            }
                          }
                        }
                      }
                    }
                    JOINT RightInHandMiddle
                    {
                      OFFSET -3.38211 0.517263 0.756737
                      CHANNELS 3 Zrotation Xrotation Yrotation
                      JOINT RightHandMiddle1
                      {
                        OFFSET -5.17411 -0.084 0.313895
                        CHANNELS 3 Zrotation Xrotation Yrotation
                        JOINT RightHandMiddle2
                        {
                          OFFSET -3.94947 0 0
                          CHANNELS 3 Zrotation Xrotation Yrotation
                          JOINT RightHandMiddle3
                          {
                            OFFSET -2.47579 0 0
                            CHANNELS 3 Zrotation Xrotation Yrotation
                            End Site
                            {
                              OFFSET -1.975 0 0
                            }
                          }
                        }
                      }
                    }
                    JOINT RightInHandRing
                    {
                      OFFSET -3.36516 0.537895 -0.128947
                      CHANNELS 3 Zrotation Xrotation Yrotation
                      JOINT RightHandRing1
                      {
                        OFFSET -4.63474 -0.022105 -0.478947
                        CHANNELS 3 Zrotation Xrotation Yrotation
                        JOINT RightHandRing2
                        {
                          OFFSET -3.44238 0 0
                          CHANNELS 3 Zrotation Xrotation Yrotation
                          JOINT RightHandRing3
                          {
                            OFFSET -2.3881 0 0
                            CHANNELS 3 Zrotation Xrotation Yrotation
                            End Site
                            {
                              OFFSET -1.857 0 0
                            }
                          }
                        }
                      }
                    }
                    JOINT RightInHandPinky
                    {
                      OFFSET -3.16105 0.469368 -1.20179
                      CHANNELS 3 Zrotation Xrotation Yrotation
                      JOINT RightHandPinky1
                      {
                        OFFSET -4.14105 -0.022105 -1.09053
                        CHANNELS 3 Zrotation Xrotation Yrotation
                        JOINT RightHandPinky2
                        {
                          OFFSET -2.75653 0 0
                          CHANNELS 3 Zrotation Xrotation Yrotation
                          JOINT RightHandPinky3
                          {
                            OFFSET -1.74189 0 0
                            CHANNELS 3 Zrotation Xrotation Yrotation
                            End Site
                            {
                              OFFSET -1.645 0 0
                            }
                          }
                        }
                      }
                    }
                  }
                }
              }
            }
            JOINT LeftShoulder
            {
              OFFSET 3.23848 6.90919 -0.0119143
              CHANNELS 3 Zrotation Xrotation Yrotation
              JOINT LeftArm
              {
                OFFSET 12.8241 -0.0554782 -0.0520121
                CHANNELS 3 Zrotation Xrotation Yrotation
                JOINT LeftForeArm
                {
                  OFFSET 26.4865 -0.0658343 -0.0244543
                  CHANNELS 3 Zrotation Xrotation Yrotation
                  JOINT LeftHand
                  {
                    OFFSET 25.985 -0.0475988 -0.0124738
                    CHANNELS 3 Zrotation Xrotation Yrotation
                    JOINT LeftHandThumb1
                    {
                      OFFSET 2.48905 0.190105 3.12053
                      CHANNELS 3 Zrotation Xrotation Yrotation
                      JOINT LeftHandThumb2
                      {
                        OFFSET 3.68274 0 0
                        CHANNELS 3 Zrotation Xrotation Yrotation
                        JOINT LeftHandThumb3
                        {
                          OFFSET 2.55832 0 0
                          CHANNELS 3 Zrotation Xrotation Yrotation
                          End Site
                          {
                            OFFSET 2.194 0 0
                          }
                        }
                      }
                    }
                    JOINT LeftInHandIndex
                    {
                      OFFSET 3.22368 0.508421 1.97842
                      CHANNELS 3 Zrotation Xrotation Yrotation
                      JOINT LeftHandIndex1
                      {
                        OFFSET 5.21684 -0.091368 0.999158
                        CHANNELS 3 Zrotation Xrotation Yrotation
                        JOINT LeftHandIndex2
                        {
                          OFFSET 3.61937 0 0
                          CHANNELS 3 Zrotation Xrotation Yrotation
                          JOINT LeftHandIndex3
                          {
                            OFFSET 2.0521 0 0
                            CHANNELS 3 Zrotation Xrotation Yrotation
                            End Site
                            {
                              OFFSET 1.805 0 0
                            }
                          }
                        }
                      }
                    }
                    JOINT LeftInHandMiddle
                    {
                      OFFSET 3.38211 0.517263 0.756737
                      CHANNELS 3 Zrotation Xrotation Yrotation
                      JOINT LeftHandMiddle1
                      {
                        OFFSET 5.17411 -0.084 0.313895
                        CHANNELS 3 Zrotation Xrotation Yrotation
                        JOINT LeftHandMiddle2
                        {
                          OFFSET 3.94947 0 0
                          CHANNELS 3 Zrotation Xrotation Yrotation
                          JOINT LeftHandMiddle3
                          {
                            OFFSET 2.47579 0 0
                            CHANNELS 3 Zrotation Xrotation Yrotation
                            End Site
                            {
                              OFFSET 1.975 0 0
                            }
                          }
                        }
                      }
                    }
                    JOINT LeftInHandRing
                    {
                      OFFSET 3.36516 0.537895 -0.128947
                      CHANNELS 3 Zrotation Xrotation Yrotation
                      JOINT LeftHandRing1
                      {
                        OFFSET 4.63474 -0.022105 -0.478947
                        CHANNELS 3 Zrotation Xrotation Yrotation
                        JOINT LeftHandRing2
                        {
                          OFFSET 3.44238 0 0
                          CHANNELS 3 Zrotation Xrotation Yrotation
                          JOINT LeftHandRing3
                          {
                            OFFSET 2.3881 0 0
                            CHANNELS 3 Zrotation Xrotation Yrotation
                            End Site
                            {
                              OFFSET 1.857 0 0
                            }
                          }
                        }
                      }
                    }
                    JOINT LeftInHandPinky
                    {
                      OFFSET 3.16105 0.469368 -1.20179
                      CHANNELS 3 Zrotation Xrotation Yrotation
                      JOINT LeftHandPinky1
                      {
                        OFFSET 4.14105 -0.022105 -1.09053
                        CHANNELS 3 Zrotation Xrotation Yrotation
                        JOINT LeftHandPinky2
                        {
                          OFFSET 2.75653 0 0
                          CHANNELS 3 Zrotation Xrotation Yrotation
                          JOINT LeftHandPinky3
                          {
                            OFFSET 1.74189 0 0
                            CHANNELS 3 Zrotation Xrotation Yrotation
                            End Site
                            {
                              OFFSET 1.645 0 0
                            }
                          }
                        }
                      }
                    }
                  }
                }
              }
            }
          }
        }
      }
    }
  }
}
MOTION
Frames: 2
Frame Time: 0.00833333
6.000000000000000000e+02 0.000000000000000000e+00 0.000000000000000000e+00 0.000000000000000000e+00 0.000000000000000000e+00 0.000000000000000000e+00 8.072877556727146853e-02 -7.697563690898602540e-02 9.547521995315486065e-02 -3.041606255678691931e-02 6.716806693147683860e-02 3.702753076723105941e-01 -7.611869190973083454e-02 1.419752263379325460e-02 -1.554788062006518257e-01 1.965122927515040308e-01 -1.300845760419407915e-01 -9.565274243006899324e-02 -2.109055110294935087e-01 9.557120443567067303e-03 -9.012594831869338852e-02 9.024874954029463159e-02 -3.005524401772367016e-01 -1.340433614232229842e-01 5.988421702529037743e-02 2.230516156206309719e-01 1.231414440797785337e-01 1.501715047102497036e-01 -1.063894059397097608e-02 -3.897301760258596315e-01 3.604186337722940781e-02 -2.763318592726494646e-02 -9.704155729577508549e-02 4.850994240007866498e-02 -4.996224405371713084e-02 -1.497860811004703141e-01 -1.729262613140886487e-02 -4.661680560700567216e-03 1.021212934029857092e-02 -8.056016051903687469e-02 -1.274984413277557016e-01 3.816816941802824159e-01 -2.106703243441570561e-01 2.289332033535430577e-01 -1.714257759292990013e-01 -2.036484094260016808e-01 -8.103505074029497546e-02 5.910739087023424848e-02 9.459777651874379245e-01 -1.025689474679764984e-01 -6.256907923723499243e-01 -3.207217464447398747e+00 1.967360035223887582e+00 -4.438547493119996190e+00 9.673804139060584451e-01 4.778823673429684060e-01 1.453404953095306817e+00 0.000000000000000000e+00 0.000000000000000000e+00 0.000000000000000000e+00 8.045203489201210509e-15 2.647317739518464518e-15 0.000000000000000000e+00 2.502275339223575642e-15 -8.651690119464149815e-16 0.000000000000000000e+00 1.559735893839676848e-15 8.810778774876463383e-16 -5.138561170156059177e-16 0.000000000000000000e+00 0.000000000000000000e+00 0.000000000000000000e+00 0.000000000000000000e+00 -7.438199930870064734e-15 -2.321873393957275471e-14 0.000000000000000000e+00 -8.374142897485151373e-16 -5.797214739607488372e-16 1.559735893839676848e-15 8.810778774876463383e-16 -5.138561170156059177e-16 0.000000000000000000e+00 -5.824963317759611448e-15 -9.969861077598037325e-15 0.000000000000000000e+00 -6.273263037547104014e-15 -2.816905986262718160e-14 0.000000000000000000e+00 4.069006548286932591e-15 -2.408831191896042489e-15 1.559735893839676848e-15 8.810778774876463383e-16 -5.138561170156059177e-16 0.000000000000000000e+00 0.000000000000000000e+00 0.000000000000000000e+00 0.000000000000000000e+00 -3.495110148685159462e-15 -1.099148318693556440e-14 0.000000000000000000e+00 -5.698469172223446896e-15 -1.379595507475992788e-15 1.559735893839676848e-15 8.810778774876463383e-16 -5.138561170156059177e-16 0.000000000000000000e+00 0.000000000000000000e+00 0.000000000000000000e+00 0.000000000000000000e+00 -4.695531046354099276e-15 -1.015091713716321694e-14 0.000000000000000000e+00 -7.097366176224811762e-15 -4.880644477846451090e-15 -1.388096242552367549e-02 2.160586552909518898e-01 -1.706401736615294207e-02 -8.090427408184960867e-02 -4.559995002638959211e-02 1.308364912465647956e-01 -6.728220357295144893e-01 2.307006574592693759e-01 -9.615666190696202653e-01 -4.364835269173475418e-01 3.731115965110212707e-01 1.863390735171217560e-01 0.000000000000000000e+00 0.000000000000000000e+00 0.000000000000000000e+00 7.979160362704274353e-16 -5.860086172264789320e-16 0.000000000000000000e+00 3.928859726452964008e-15 -1.438149478699134056e-15 0.000000000000000000e+00 -1.507706220238126430e-15 -2.252553366404962924e-15 -2.294398245265535994e-15 0.000000000000000000e+00 0.000000000000000000e+00 0.000000000000000000e+00 0.000000000000000000e+00 3.571775378742153274e-15 -5.290627524924800451e-15 0.000000000000000000e+00 -1.524548875483459419e-15 -7.742118797376657938e-15 -1.507706220238126430e-15 -2.252553366404962924e-15 -2.294398245265535994e-15 0.000000000000000000e+00 -1.898724425884261610e-15 -3.414166491477866476e-15 0.000000000000000000e+00 -4.184991132602151554e-15 -7.347912902896801560e-15 0.000000000000000000e+00 1.579808783684332407e-15 -4.720297202460560027e-15 -1.507706220238126430e-15 -2.252553366404962924e-15 -2.294398245265535994e-15 0.000000000000000000e+00 0.000000000000000000e+00 0.000000000000000000e+00 0.000000000000000000e+00 1.819797274519981497e-15 -1.799426762650881013e-15 0.000000000000000000e+00 4.423299153926724727e-16 -9.563654239308344836e-15 -1.507706220238126430e-15 -2.252553366404962924e-15 -2.294398245265535994e-15 0.000000000000000000e+00 0.000000000000000000e+00 0.000000000000000000e+00 0.000000000000000000e+00 2.665155967218733260e-15 -3.352543572342076742e-15 0.000000000000000000e+00 2.867724424983050906e-15 -2.713254021034574636e-15
6.000000000000000000e+02 0.000000000000000000e+00 0.000000000000000000e+00 0.000000000000000000e+00 0.000000000000000000e+00 0.000000000000000000e+00 7.849058529621182057e-02 -3.912748687264568093e-02 9.406227113101348070e-02 7.443624453665045881e-03 6.103774467751642285e-02 3.846776929071420437e-01 -6.422061574277727891e-02 3.403299758637457796e-03 -2.099714470219298523e-01 1.859229008877903988e-01 -1.158960523178068219e-01 -7.262129581295997949e-02 -1.643465856672668701e-01 -8.554160788409531993e-03 -9.530515203757868037e-02 6.852516793614117641e-02 -2.601035995035489989e-01 -1.260031671440287049e-01 5.832302192061607909e-02 1.950602143327533344e-01 1.269141741903690446e-01 1.609007802611827076e-01 -1.474065383070165616e-02 -3.841448964349065132e-01 3.791873403748548949e-02 -2.702470892035176500e-02 -9.504763858462782211e-02 5.323445767061438239e-02 -4.811706516949268431e-02 -1.465123794242590982e-01 -1.654129459707742722e-02 -4.267648581828566851e-03 9.694840056471178136e-03 -6.839255547531382373e-02 -1.083581360542671262e-01 3.270394638110487584e-01 -2.107529722079517776e-01 2.030304300041861909e-01 -1.328846609738658091e-01 -1.660612668122487257e-01 -6.733233952614320339e-02 4.763431042893219447e-02 9.782861126451551925e-01 -2.353294058540096045e-01 -5.493142914619597583e-01 -3.145884145206599314e+00 1.875981193174788508e+00 -4.479985567758279608e+00 9.810658759858637001e-01 4.677315354528929214e-01 1.506149368164375169e+00 0.000000000000000000e+00 0.000000000000000000e+00 0.000000000000000000e+00 5.344423805936819936e-15 1.707450482469583573e-15 0.000000000000000000e+00 3.961409963872156709e-15 -1.107662075640170444e-15 0.000000000000000000e+00 9.154894711996362688e-16 9.535971927698431519e-16 -5.847711613606762209e-16 0.000000000000000000e+00 0.000000000000000000e+00 0.000000000000000000e+00 0.000000000000000000e+00 -5.804765821583503191e-15 -1.944303091689576346e-14 0.000000000000000000e+00 4.896516032321573726e-16 1.394984624142693574e-15 9.154894711996362688e-16 9.535971927698431519e-16 -5.847711613606762209e-16 0.000000000000000000e+00 -4.860891574139511807e-15 -9.420862614295120567e-15 0.000000000000000000e+00 -5.896473323664636314e-15 -2.531239876665757455e-14 0.000000000000000000e+00 3.551932664016942471e-15 -1.537116668547208933e-15 9.154894711996362688e-16 9.535971927698431519e-16 -5.847711613606762209e-16 0.000000000000000000e+00 0.000000000000000000e+00 0.000000000000000000e+00 0.000000000000000000e+00 -2.850558841166240652e-15 -1.085600597151960821e-14 0.000000000000000000e+00 -4.157014698728015451e-15 -9.394841344810696246e-16 9.154894711996362688e-16 9.535971927698431519e-16 -5.847711613606762209e-16 0.000000000000000000e+00 0.000000000000000000e+00 0.000000000000000000e+00 0.000000000000000000e+00 -4.676312865369227856e-15 -8.590805350620823779e-15 0.000000000000000000e+00 -6.058484440050348828e-15 -4.266733302823800984e-15 -1.553961266806082320e-02 1.803358754494448213e-01 -5.247362770727393572e-02 -1.140540781765682216e-01 -5.398774817028631490e-02 1.257397661296773272e-01 -5.610562652007382578e-01 2.476802166847177356e-01 -8.031642401803315012e-01 -4.297683381066817465e-01 4.592103015049173870e-02 1.431119579839264522e-01 0.000000000000000000e+00 0.000000000000000000e+00 0.000000000000000000e+00 -1.377736163950958105e-16 -1.303452491899613401e-16 0.000000000000000000e+00 2.902206663771676998e-15 -9.048886048300086122e-16 0.000000000000000000e+00 -1.417371874810189665e-15 -1.902648927388415289e-15 -1.614873866591567940e-15 0.000000000000000000e+00 0.000000000000000000e+00 0.000000000000000000e+00 0.000000000000000000e+00 3.388055596054475578e-15 -4.983820065962708280e-15 0.000000000000000000e+00 -9.333541954459719662e-16 -7.204228780920224530e-15 -1.417371874810189665e-15 -1.902648927388415289e-15 -1.614873866591567940e-15 0.000000000000000000e+00 -1.360737519030120319e-15 -3.300553118937372599e-15 0.000000000000000000e+00 -2.704064968792996170e-15 -6.627685281530285518e-15 0.000000000000000000e+00 1.466298292119013408e-15 -3.517313092675580904e-15 -1.417371874810189665e-15 -1.902648927388415289e-15 -1.614873866591567940e-15 0.000000000000000000e+00 0.000000000000000000e+00 0.000000000000000000e+00 0.000000000000000000e+00 1.745361876575598673e-15 -3.119943410146049063e-15 0.000000000000000000e+00 1.122485761605833261e-15 -8.049463249237463241e-15 -1.417371874810189665e-15 -1.902648927388415289e-15 -1.614873866591567940e-15 0.000000000000000000e+00 0.000000000000000000e+00 0.000000000000000000e+00 0.000000000000000000e+00 2.260576975812760133e-15 -4.046967264950294729e-15 0.000000000000000000e+00 1.693287085244718736e-15 -2.288096439203478560e-15
